<svg xmlns="http://www.w3.org/2000/svg" viewBox="0 0 300 300" width="32" height="32">
  <g transform="translate(-64.9784,-151.3201) scale(1.001180)">
    <!-- Circle outline -->
    <path transform="matrix(1,0,0,-1,214.7271,174.6727)" d="M0 0C-69.636 0-126.289-56.653-126.289-126.29-126.289-195.926-69.636-252.579 0-252.579 69.637-252.579 126.29-195.926 126.29-126.29 126.29-56.653 69.637 0 0 0M0-266.126C-77.106-266.126-139.836-203.396-139.836-126.29-139.836-49.184-77.106 13.547 0 13.547 77.106 13.547 139.837-49.184 139.837-126.29 139.837-203.396 77.106-266.126 0-266.126" fill="#231f20"/>
    <!-- Stylized A letterform -->
    <path transform="matrix(1,0,0,-1,209.5264,382.81434)" d="M0 0-51.046 137.455H-21.923L31.843-9.921ZM-52.486 55.046H-30.403V33.443H-88.49L-56.326 127.214-41.765 88.81Z" fill="#231f20"/>
    <!-- Stylized 3 letterform -->
    <path transform="matrix(1,0,0,-1,0,595.2)" d="M238.063 304.129H277.587V281.727H238.063ZM282.388 262.524V314.69H311.191V305.89C311.191 304.074 310.816 302.421 310.071 300.929 309.323 299.434 308.442 298.128 307.431 297.008 306.415 295.888 305.403 294.953 304.39 294.208 303.375 293.46 302.55 292.928 301.909 292.608 302.654 292.288 303.563 291.808 304.631 291.168 305.695 290.527 306.735 289.7 307.75 288.687 308.764 287.672 309.616 286.447 310.311 285.007 311.004 283.567 311.352 281.939 311.352 280.127V250.523C311.352 249.455 311.056 248.363 310.472 247.243 309.884 246.123 309.111 245.083 308.15 244.123 307.19 243.162 306.123 242.388 304.95 241.803 303.774 241.215 302.654 240.922 301.59 240.922H229.742V262.524ZM301.59 344.934C302.654 344.934 303.751 344.639 304.871 344.054 305.991 343.466 307.03 342.693 307.991 341.733 308.951 340.773 309.723 339.733 310.311 338.612 310.896 337.492 311.191 336.397 311.191 335.332V323.331H229.422V344.934Z" fill="#231f20"/>
  </g>
</svg>